<?xml version="1.0" encoding="UTF-8"?>
<svg width="24px" height="24px" viewBox="0 0 24 24" version="1.1" xmlns="http://www.w3.org/2000/svg" xmlns:xlink="http://www.w3.org/1999/xlink">
    <g stroke="none" stroke-width="1" fill="none" fill-rule="evenodd">
        <path d="M12,2 C16.418278,2 20,5.581722 20,10 C20,12.8133333 17.5666667,16.59 12.7,21.33 C12.3111111,21.7766667 11.6888889,21.7766667 11.3,21.33 C6.43333333,16.59 4,12.8133333 4,10 C4,5.581722 7.581722,2 12,2 Z M12,4 C8.6862915,4 6,6.6862915 6,10 C6,11.21 6.8,14.2366667 12,19.09 C17.2,14.2366667 18,11.21 18,10 C18,6.6862915 15.3137085,4 12,4 Z M12,6 C14.209139,6 16,7.790861 16,10 C16,12.209139 14.209139,14 12,14 C9.790861,14 8,12.209139 8,10 C8,7.790861 9.790861,6 12,6 Z M12,8 C10.8954305,8 10,8.8954305 10,10 C10,11.1045695 10.8954305,12 12,12 C13.1045695,12 14,11.1045695 14,10 C14,8.8954305 13.1045695,8 12,8 Z" fill="#000000"></path>
    </g>
</svg>
